# xmcd CD database file generated by Grip 3.0.5
# 
# Track frame offsets:
#       150
#       14330
#       26531
#       39090
#       51327
#       64077
#       75598
#       88691
#       103869
#       118081
#       129175
#       142939
#       154247
#       166850
#       175512
#       187368
#       196878
#       213493
#       224361
#       237144
# 
# Disc length: 3302 seconds
# 
# Revision: 3
# Processed by: cddbd v1.5PL3 Copyright (c) Steve Scherf et al.
# Submitted via: Grip 3.0.5
# 
DISCID=0e0ce414
DTITLE=Simon and Garfunkel - The Essential Simon and Garfunkel [CD1)
DYEAR=2003
DGENRE=Blues
TTITLE0=The Sound of Silence
TTITLE1=Wednesday Morning, 3 A.M
TTITLE2=Bye Bye Love
TTITLE3=Bleecker Street
TTITLE4=I am a Rock
TTITLE5=A Most Peculiar Man
TTITLE6=Richard Cory
TTITLE7=Kathy's Song
TTITLE8=Scarborough Fair
TTITLE9=Homeward Bound
TTITLE10=Sparrow
TTITLE11=Leaves that are Green
TTITLE12=He was My Brother
TTITLE13=The 59th Street Bridge Song
TTITLE14=the Dangling Conversation
TTITLE15=A Poem on the Underground Wall
TTITLE16=Blessed
TTITLE17=Cloudy
TTITLE18=Blues Run the Game
TTITLE19=A Hazy Shade of Winter
EXTD=YEAR: 2003
EXTT0=
EXTT1=
EXTT2=
EXTT3=
EXTT4=
EXTT5=
EXTT6=
EXTT7=
EXTT8=
EXTT9=
EXTT10=
EXTT11=
EXTT12=
EXTT13=
EXTT14=
EXTT15=
EXTT16=
EXTT17=
EXTT18=
EXTT19=
PLAYORDER=
